<?xml version="1.0" encoding="utf-8"?>
<!-- Generator: Adobe Illustrator 24.1.0, SVG Export Plug-In . SVG Version: 6.00 Build 0)  -->
<svg version="1.1" id="Layer_1" xmlns="http://www.w3.org/2000/svg" xmlns:xlink="http://www.w3.org/1999/xlink" x="0px" y="0px"
	 viewBox="0 0 44 45" style="enable-background:new 0 0 44 45;" xml:space="preserve">
<style type="text/css">
	.st0{fill:#DAD9D9;}
</style>
<g>
	<g>
		<g>
			<path d="M44,24.5c0,11-9,20-20,20c-6.5,0-12.3-3.1-16-8c0.5,0.3,0.9,0.7,1.4,1c0.5,0.3,1,0.6,1.6,0.9c2.7,1.4,5.8,2.1,9,2.1
				c11,0,20-9,20-20c0-3.2-0.8-6.3-2.1-9c-0.3-0.5-0.6-1.1-0.9-1.6c-0.3-0.5-0.6-1-1-1.4C40.9,12.2,44,18,44,24.5z"/>
		</g>
	</g>
	<g>
		<g>
			<path class="st0" d="M37.9,11.5c-0.3-0.5-0.6-1.1-0.9-1.6c-0.3-0.5-0.6-1-1-1.4c-3.7-4.9-9.5-8-16-8c-11,0-20,9-20,20
				c0,6.5,3.1,12.3,8,16c0.5,0.3,0.9,0.7,1.4,1c0.5,0.3,1,0.6,1.6,0.9c2.7,1.4,5.8,2.1,9,2.1c11,0,20-9,20-20
				C40,17.3,39.2,14.2,37.9,11.5z M20,39.5c-4.2,0-8.1-1.4-11.3-3.7c-0.5-0.4-0.9-0.7-1.4-1.1c-0.4-0.4-0.8-0.8-1.2-1.2
				C3,30.1,1,25.5,1,20.5c0-10.5,8.5-19,19-19c5,0,9.6,2,13,5.1c0.4,0.4,0.8,0.8,1.2,1.2c0.4,0.4,0.8,0.9,1.1,1.4
				c2.3,3.1,3.7,7.1,3.7,11.3C39,31,30.5,39.5,20,39.5z"/>
			<path d="M39,20.5c0,10.5-8.5,19-19,19c-4.2,0-8.1-1.4-11.3-3.7c-0.5-0.4-0.9-0.7-1.4-1.1c-0.4-0.4-0.8-0.8-1.2-1.2
				C3,30.1,1,25.5,1,20.5c0-10.5,8.5-19,19-19c5,0,9.6,2,13,5.1c0.4,0.4,0.8,0.8,1.2,1.2c0.4,0.4,0.8,0.9,1.1,1.4
				C37.6,12.4,39,16.3,39,20.5z"/>
		</g>
	</g>
</g>
</svg>
