<svg width="186" height="156" viewBox="0 0 186 156" fill="none" xmlns="http://www.w3.org/2000/svg">
<path d="M182.945 45.4086L182.946 45.4012C183.134 43.1635 182.816 40.9391 182.231 38.92L182.22 38.8818L182.208 38.8439C181.523 36.6957 180.409 34.7651 179.01 33.1111L178.971 33.0646L178.929 33.0198C177.5 31.4624 175.769 30.0853 173.719 29.1478C171.706 28.2267 169.56 27.7654 167.364 27.7654H20.4477C18.2509 27.7654 16.1054 28.2267 14.0918 29.1478C12.0797 30.0682 10.3257 31.3833 8.84261 33.0633L8.82171 33.087L8.80131 33.1111C7.402 34.7651 6.28834 36.6957 5.60353 38.8439C4.92658 40.9674 4.68169 43.1584 4.86495 45.394L4.86555 45.4013L4.86618 45.4086L12.9062 137.936C13.2192 141.945 15.0116 145.697 17.8704 148.427L17.882 148.438L17.8938 148.449C20.8064 151.17 24.5659 152.694 28.4889 152.694H159.322C163.284 152.694 167.059 151.178 169.941 148.427C172.826 145.672 174.537 141.916 174.902 137.967L174.903 137.958L174.904 137.95L182.945 45.4086Z" fill="black" stroke="black" stroke-width="6"/>
<g clip-path="url(#clip0_10_117)">
<path d="M178.439 38.5714C177.429 35.5408 175.776 32.7857 173.617 30.398C171.459 28.0561 168.842 26.1735 165.949 24.8878C163.056 23.602 159.888 22.9592 156.674 22.9592H110.985C104.878 22.9592 99.046 20.5255 94.7297 16.2551L85.2246 6.75C80.9542 2.43367 75.1225 0 69.0154 0H26.8623C20.7552 0 14.9235 2.43367 10.6072 6.70408C6.3368 11.0204 3.90313 16.852 3.90313 22.9592L4.36231 32.9694C1.3317 37.3776 -0.0458489 42.6582 0.459253 47.9847L7.76027 128.342C8.26538 134.036 10.9286 139.362 15.1531 143.219C19.3776 147.077 24.8878 149.235 30.6276 149.235H149.418C155.158 149.235 160.668 147.077 164.893 143.219C169.117 139.362 171.781 134.036 172.286 128.342L179.587 47.9847C179.862 44.8163 179.495 41.602 178.439 38.5714ZM18.8266 14.7398C20.9848 12.6276 23.8776 11.4337 26.8623 11.4337H69.0154C70.5307 11.4337 72.0001 11.7092 73.4235 12.3061C74.847 12.9031 76.0868 13.7296 77.1429 14.7857L85.2705 22.9592H23.3266C20.5715 22.9592 17.9082 23.4184 15.4746 24.3367L15.3827 22.7296C15.4286 19.7449 16.6684 16.852 18.8266 14.7398ZM168.153 46.9286L160.852 127.286C160.577 130.133 159.291 132.796 157.179 134.724C155.066 136.653 152.311 137.709 149.418 137.709H30.6276C27.7807 137.709 25.0256 136.653 22.8674 134.724C20.7552 132.796 19.4235 130.133 19.1939 127.286L11.8929 46.9286C11.7552 45.3214 11.9388 43.7602 12.4439 42.2449C12.949 40.7296 13.7756 39.352 14.8317 38.1582C15.9337 36.9643 17.2195 36.0459 18.6888 35.4031C20.1582 34.7602 21.7195 34.4388 23.3266 34.4388H156.719C158.327 34.4388 159.888 34.7602 161.357 35.4031C162.827 36.0459 164.112 37.0102 165.214 38.1582C166.27 39.352 167.097 40.7296 167.602 42.2449C168.061 43.7602 168.291 45.3673 168.153 46.9286Z" fill="black"/>
<path d="M85.2704 22.9591H23.3266C20.5715 22.9591 17.9082 23.4183 15.4745 24.3367L15.3827 22.7295C15.4286 19.7448 16.6684 16.852 18.8266 14.7397C20.9847 12.6275 23.8776 11.4336 26.8623 11.4336H69.0153C70.5307 11.4336 72 11.7091 73.4235 12.306C74.847 12.903 76.0868 13.7295 77.1429 14.7856L85.2704 22.9591Z" fill="white"/>
<path d="M168.153 46.9285L160.852 127.286C160.577 130.133 159.291 132.796 157.179 134.724C155.066 136.653 152.311 137.709 149.418 137.709H30.6276C27.7807 137.709 25.0256 136.653 22.8674 134.724C20.7552 132.796 19.4235 130.133 19.1939 127.286L11.8929 46.9285C11.7552 45.3214 11.9388 43.7601 12.4439 42.2448C12.949 40.7295 13.7756 39.352 14.8317 38.1581C15.9337 36.9642 17.2194 36.0459 18.6888 35.403C20.1582 34.7601 21.7194 34.4387 23.3266 34.4387H156.719C158.327 34.4387 159.888 34.7601 161.357 35.403C162.827 36.0459 164.112 37.0101 165.214 38.1581C166.27 39.352 167.097 40.7295 167.602 42.2448C168.061 43.7601 168.291 45.3673 168.153 46.9285Z" fill="white"/>
</g>
<defs>
<clipPath id="clip0_10_117">
<rect width="180" height="149.235" fill="white"/>
</clipPath>
</defs>
</svg>
