<?xml version="1.0" encoding="utf-8"?>
<!-- Generator: Adobe Illustrator 24.1.0, SVG Export Plug-In . SVG Version: 6.00 Build 0)  -->
<svg version="1.1" id="Layer_1" xmlns="http://www.w3.org/2000/svg" xmlns:xlink="http://www.w3.org/1999/xlink" x="0px" y="0px"
	 viewBox="0 0 234.8 196.9" style="enable-background:new 0 0 234.8 196.9;" xml:space="preserve">
<style type="text/css">
	.st0{fill:#9B9B9B;}
</style>
<g>
	<g>
		<path d="M197.9,51.6L193,33.1c-1-3.9-4.5-6.6-8.5-6.6h-37.9V11c0-3.5-2.8-6.3-6.3-6.3h-39.8c-3.5,0-6.3,2.8-6.3,6.3v15.5H56.3
			c-4,0-7.5,2.7-8.5,6.6l-4.9,18.6c-1,3.9,1.9,7.8,6,7.8h7l8.7,120.8c0.6,7.8,7.1,13.9,14.9,13.9h81.6c7.9,0,14.4-6.1,14.9-13.9
			l8.7-120.8h7C196,59.4,198.9,55.6,197.9,51.6z M104.5,17.2c0-1,0.8-1.8,1.9-1.8h28c1,0,1.8,0.8,1.8,1.8v9.3h-31.7V17.2z
			 M165.7,178.9C165.7,178.9,165.7,178.9,165.7,178.9c-0.2,2.6-2.3,4.6-4.9,4.6H80c-2.6,0-4.7-2-4.9-4.5c0,0,0,0,0-0.1L67,59.4
			h106.8L165.7,178.9z M184.9,48.2H55.9c-0.5,0-0.8-0.4-0.6-0.9l2.7-7.7c0.4-1.2,1.5-1.9,2.7-1.9h119.6c1.2,0,2.3,0.8,2.7,1.9
			l2.7,7.7C185.7,47.7,185.4,48.2,184.9,48.2z"/>
		<path d="M184.9,48.2H55.9c-0.5,0-0.8-0.4-0.6-0.9l2.7-7.7c0.4-1.2,1.5-1.9,2.7-1.9h119.6c1.2,0,2.3,0.8,2.7,1.9l2.7,7.7
			C185.7,47.7,185.4,48.2,184.9,48.2z"/>
		<path d="M126,71.7v99.6c0,3.1-2.5,5.7-5.6,5.7c-3.1,0-5.7-2.5-5.7-5.7V71.7c0-3.1,2.5-5.6,5.7-5.6c1.6,0,3,0.6,4,1.7
			C125.4,68.8,126,70.2,126,71.7z"/>
		<path d="M98.3,171c0.1,3.1-2.2,5.8-5.4,5.9c-3.1,0.2-5.8-2.2-5.9-5.4l-4.8-99.4c-0.2-3.1,2.2-5.8,5.4-5.9c0.1,0,0.2,0,0.3,0
			c3,0,5.5,2.3,5.7,5.4L98.3,171z"/>
		<path d="M158.6,72.1l-4.8,99.4c-0.2,3.1-2.8,5.5-5.9,5.4c-3.1-0.1-5.5-2.8-5.4-5.9l4.8-99.4c0.2-3,2.7-5.4,5.7-5.4
			c0.1,0,0.2,0,0.3,0C156.3,66.3,158.7,69,158.6,72.1z"/>
		<path d="M67,59.4l8.1,119.5c0,0,0,0,0,0.1c0.2,2.6,2.3,4.5,4.9,4.5h80.7c2.6,0,4.7-2,4.9-4.5c0,0,0,0,0-0.1l8.1-119.5H67z
			 M93,176.9c-3.1,0.2-5.8-2.2-5.9-5.4l-4.8-99.4c-0.2-3.1,2.2-5.8,5.4-5.9c0.1,0,0.2,0,0.3,0c3,0,5.5,2.3,5.7,5.4l4.8,99.4
			C98.5,174.1,96.1,176.7,93,176.9z M126,171.3c0,3.1-2.5,5.7-5.6,5.7c-3.1,0-5.7-2.5-5.7-5.7V71.7c0-3.1,2.5-5.6,5.7-5.6
			c1.6,0,3,0.6,4,1.7c1,1,1.7,2.4,1.7,4V171.3z M153.7,171.5c-0.2,3.1-2.8,5.5-5.9,5.4c-3.1-0.1-5.5-2.8-5.4-5.9l4.8-99.4
			c0.2-3,2.7-5.4,5.7-5.4c0.1,0,0.2,0,0.3,0c3.1,0.2,5.5,2.8,5.4,5.9L153.7,171.5z"/>
		<path d="M136.3,17.2v9.3h-31.7v-9.3c0-1,0.8-1.8,1.9-1.8h28C135.4,15.4,136.3,16.2,136.3,17.2z"/>
		<path d="M136.3,17.2v9.3h-31.7v-9.3c0-1,0.8-1.8,1.9-1.8h28C135.4,15.4,136.3,16.2,136.3,17.2z"/>
	</g>
	<g>
		<g>
			<path d="M194.9,48.6L190,30.1c-1-3.9-4.5-6.6-8.5-6.6h-37.9V8c0-3.5-2.8-6.3-6.3-6.3H97.5c-3.5,0-6.3,2.8-6.3,6.3v15.5H53.3
				c-4,0-7.5,2.7-8.5,6.6l-4.9,18.6c-1,3.9,1.9,7.8,6,7.8h7l8.7,120.8c0.6,7.8,7.1,13.9,14.9,13.9h81.6c7.9,0,14.4-6.1,14.9-13.9
				l8.7-120.8h7C193,56.4,195.9,52.6,194.9,48.6z M101.5,14.2c0-1,0.8-1.8,1.9-1.8h28c1,0,1.8,0.8,1.8,1.8v9.3h-31.7V14.2z
				 M162.7,175.9C162.7,175.9,162.7,175.9,162.7,175.9c-0.2,2.6-2.3,4.6-4.9,4.6H77c-2.6,0-4.7-2-4.9-4.5c0,0,0,0,0-0.1L64,56.4
				h106.8L162.7,175.9z M181.9,45.2H52.9c-0.5,0-0.8-0.4-0.6-0.9l2.7-7.7c0.4-1.2,1.5-1.9,2.7-1.9h119.6c1.2,0,2.3,0.8,2.7,1.9
				l2.7,7.7C182.7,44.7,182.4,45.2,181.9,45.2z"/>
			<path class="st0" d="M181.9,45.2H52.9c-0.5,0-0.8-0.4-0.6-0.9l2.7-7.7c0.4-1.2,1.5-1.9,2.7-1.9h119.6c1.2,0,2.3,0.8,2.7,1.9
				l2.7,7.7C182.7,44.7,182.4,45.2,181.9,45.2z"/>
			<g>
				<path d="M123,68.7v99.6c0,3.1-2.5,5.7-5.6,5.7c-3.1,0-5.7-2.5-5.7-5.7V68.7c0-3.1,2.5-5.6,5.7-5.6c1.6,0,3,0.6,4,1.7
					C122.4,65.8,123,67.2,123,68.7z"/>
				<path d="M95.3,168c0.1,3.1-2.2,5.8-5.4,5.9c-3.1,0.2-5.8-2.2-5.9-5.4l-4.8-99.4c-0.2-3.1,2.2-5.8,5.4-5.9c0.1,0,0.2,0,0.3,0
					c3,0,5.5,2.3,5.7,5.4L95.3,168z"/>
				<path d="M155.6,69.1l-4.8,99.4c-0.2,3.1-2.8,5.5-5.9,5.4c-3.1-0.1-5.5-2.8-5.4-5.9l4.8-99.4c0.2-3,2.7-5.4,5.7-5.4
					c0.1,0,0.2,0,0.3,0C153.3,63.3,155.7,66,155.6,69.1z"/>
			</g>
			<path class="st0" d="M64,56.4l8.1,119.5c0,0,0,0,0,0.1c0.2,2.6,2.3,4.5,4.9,4.5h80.7c2.6,0,4.7-2,4.9-4.5c0,0,0,0,0-0.1
				l8.1-119.5H64z M90,173.9c-3.1,0.2-5.8-2.2-5.9-5.4l-4.8-99.4c-0.2-3.1,2.2-5.8,5.4-5.9c0.1,0,0.2,0,0.3,0c3,0,5.5,2.3,5.7,5.4
				l4.8,99.4C95.5,171.1,93.1,173.7,90,173.9z M123,168.3c0,3.1-2.5,5.7-5.6,5.7c-3.1,0-5.7-2.5-5.7-5.7V68.7c0-3.1,2.5-5.6,5.7-5.6
				c1.6,0,3,0.6,4,1.7c1,1,1.7,2.4,1.7,4V168.3z M150.7,168.5c-0.2,3.1-2.8,5.5-5.9,5.4c-3.1-0.1-5.5-2.8-5.4-5.9l4.8-99.4
				c0.2-3,2.7-5.4,5.7-5.4c0.1,0,0.2,0,0.3,0c3.1,0.2,5.5,2.8,5.4,5.9L150.7,168.5z"/>
			<path d="M133.3,14.2v9.3h-31.7v-9.3c0-1,0.8-1.8,1.9-1.8h28C132.4,12.4,133.3,13.2,133.3,14.2z"/>
			<path class="st0" d="M133.3,14.2v9.3h-31.7v-9.3c0-1,0.8-1.8,1.9-1.8h28C132.4,12.4,133.3,13.2,133.3,14.2z"/>
		</g>
	</g>
</g>
</svg>
