<?xml version="1.0" encoding="utf-8"?>
<!-- Generator: Adobe Illustrator 24.1.0, SVG Export Plug-In . SVG Version: 6.00 Build 0)  -->
<svg version="1.1" id="Layer_1" xmlns="http://www.w3.org/2000/svg" xmlns:xlink="http://www.w3.org/1999/xlink" x="0px" y="0px"
	 viewBox="0 0 44 45" style="enable-background:new 0 0 44 45;" xml:space="preserve">
<style type="text/css">
	.st0{fill:#FFFFFF;}
</style>
<g>
	<g>
		<g>
			<path d="M44,24.5c0,11-9,20-20,20c-6.5,0-12.3-3.1-16-8c0.5,0.3,0.9,0.7,1.4,1s1,0.6,1.6,0.9c2.7,1.4,5.8,2.1,9,2.1
				c11,0,20-9,20-20c0-3.2-0.8-6.3-2.1-9c-0.3-0.5-0.6-1.1-0.9-1.6c-0.3-0.5-0.6-1-1-1.4C40.9,12.2,44,18,44,24.5z"/>
		</g>
	</g>
	<g>
		<g>
			<path d="M37.9,11.5c-0.1-0.3-0.3-0.5-0.4-0.7c0,0,0,0,0-0.1c-0.1-0.1-0.2-0.3-0.2-0.4c-0.1-0.1-0.1-0.2-0.1-0.3
				c0,0,0-0.1-0.1-0.1c-0.3-0.5-0.6-1-1-1.4c-3.7-4.9-9.5-8-16-8c-11,0-20,9-20,20c0,6.5,3.2,12.3,8,16c0.5,0.3,0.9,0.7,1.4,1
				s1,0.6,1.6,0.9c2.7,1.4,5.8,2.1,9,2.1c11,0,20-9,20-20C40,17.3,39.2,14.2,37.9,11.5z M24.3,38c-0.5,0.1-1.1,0.2-1.6,0.3
				c-0.6,0.1-1.2,0.2-1.8,0.2h-1.6c-3.8-0.1-7.2-1.4-10-3.5c-0.2-0.2-0.5-0.3-0.7-0.5C8.4,34.3,8.2,34.2,8,34
				c-0.4-0.4-0.8-0.7-1.1-1.1C3.8,29.6,2,25.3,2,20.5c0-10,8.1-18,18-18c4.8,0,9.1,1.8,12.3,4.9c0.4,0.4,0.8,0.8,1.1,1.2
				c0.4,0.4,0.7,0.9,1,1.3c2.3,2.9,3.7,6.6,3.7,10.6C38.1,29,32.2,36.1,24.3,38z"/>
			<path class="st0" d="M38.1,20.5c0,8.5-5.9,15.6-13.8,17.5c-0.5,0.1-1.1,0.2-1.6,0.3c-0.6,0.1-1.2,0.2-1.8,0.2h-1.6
				c-3.8-0.1-7.2-1.4-10-3.5c-0.2-0.2-0.5-0.3-0.7-0.5C8.4,34.3,8.2,34.2,8,34c-0.4-0.4-0.8-0.7-1.1-1.1C3.8,29.6,2,25.3,2,20.5
				c0-10,8.1-18,18-18c4.8,0,9.1,1.8,12.3,4.9c0.4,0.4,0.8,0.8,1.1,1.2c0.4,0.4,0.7,0.9,1,1.3C36.7,12.8,38.1,16.5,38.1,20.5z"/>
		</g>
	</g>
</g>
</svg>
