<?xml version="1.0" encoding="utf-8"?>
<!-- Generator: Adobe Illustrator 24.1.0, SVG Export Plug-In . SVG Version: 6.00 Build 0)  -->
<svg version="1.1" id="Layer_1" xmlns="http://www.w3.org/2000/svg" xmlns:xlink="http://www.w3.org/1999/xlink" x="0px" y="0px"
	 viewBox="0 0 186 156" style="enable-background:new 0 0 186 156;" xml:space="preserve">
<style type="text/css">
	.st0{fill:#A3EFCC;}
	.st1{fill:#83E28A;}
	.st2{fill:#EDA2DD;}
	.st3{fill:#EDD194;}
</style>
<g>
	<path d="M185.9,45.7L185.9,45.7l-8.1,92.7c-0.4,4.7-2.5,9.1-5.9,12.3c-3.4,3.3-8,5.1-12.7,5.1H28.5c-4.7,0-9.2-1.8-12.6-5
		c-3.5-3.3-5.6-7.7-5.9-12.5l-0.2-2.5c-1.1-2.3-1.7-4.8-2-7.4L0.5,48C0,42.7,1.3,37.4,4.4,33L3.9,23c0-6.1,2.4-11.9,6.7-16.3
		C14.9,2.4,20.8,0,26.9,0H69c6.1,0,12,2.4,16.2,6.8l9.5,9.5C99,20.5,104.9,23,111,23h45.7c3.1,0,6.2,0.6,9,1.8h1.7
		c2.7,0,5.2,0.6,7.6,1.7c2.3,1,4.3,2.6,6.2,4.6l0.1,0.1c1.8,2.1,3,4.3,3.8,6.8v0.1C185.9,40.7,186.1,43.2,185.9,45.7z"/>
</g>
<g>
	<g>
		<g>
			<path class="st1" d="M18.8,14.7c2.2-2.1,5.1-3.3,8-3.3H69c1.5,0,3,0.3,4.4,0.9c1.4,0.6,2.7,1.4,3.7,2.5l8.1,8.2H23.3
				c-2.8,0-5.4,0.5-7.9,1.4l-0.1-1.6C15.4,19.7,16.7,16.9,18.8,14.7z M168.2,46.9l-7.3,80.4c-0.3,2.8-1.6,5.5-3.7,7.4
				c-2.1,1.9-4.9,3-7.8,3H30.6c-2.8,0-5.6-1.1-7.8-3c-2.1-1.9-3.4-4.6-3.7-7.4l-7.3-80.4c-0.1-1.6,0-3.2,0.6-4.7s1.3-2.9,2.4-4.1
				c1.1-1.2,2.4-2.1,3.9-2.8c1.5-0.6,3-1,4.6-1h133.4c1.6,0,3.2,0.3,4.6,1c1.5,0.6,2.8,1.6,3.9,2.8c1.1,1.2,1.9,2.6,2.4,4.1
				C168.1,43.8,168.3,45.4,168.2,46.9z"/>
			<path class="st1" d="M85.3,23h-62c-2.8,0-5.4,0.5-7.9,1.4l-0.1-1.6c0-3,1.3-5.9,3.4-8c2.2-2.1,5.1-3.3,8-3.3H69
				c1.5,0,3,0.3,4.4,0.9c1.4,0.6,2.7,1.4,3.7,2.5L85.3,23z"/>
			<path class="st1" d="M168.2,46.9l-7.3,80.4c-0.3,2.8-1.6,5.5-3.7,7.4c-2.1,1.9-4.9,3-7.8,3H30.6c-2.8,0-5.6-1.1-7.8-3
				c-2.1-1.9-3.4-4.6-3.7-7.4l-7.3-80.4c-0.1-1.6,0-3.2,0.6-4.7s1.3-2.9,2.4-4.1c1.1-1.2,2.4-2.1,3.9-2.8c1.5-0.6,3-1,4.6-1h133.4
				c1.6,0,3.2,0.3,4.6,1c1.5,0.6,2.8,1.6,3.9,2.8c1.1,1.2,1.9,2.6,2.4,4.1C168.1,43.8,168.3,45.4,168.2,46.9z"/>
		</g>
	</g>
</g>
</svg>
