<?xml version="1.0" encoding="utf-8"?>
<!-- Generator: Adobe Illustrator 24.1.0, SVG Export Plug-In . SVG Version: 6.00 Build 0)  -->
<svg version="1.1" id="Layer_1" xmlns="http://www.w3.org/2000/svg" xmlns:xlink="http://www.w3.org/1999/xlink" x="0px" y="0px"
	 viewBox="0 0 256 213" style="enable-background:new 0 0 256 213;" xml:space="preserve">
<style type="text/css">
	.st0{fill:#231F20;}
	.st1{fill:url(#SVGID_1_);}
</style>
<path class="st0" d="M22.8,43.1c0,0,9.4,14.8,38.9,25.8c36.4,13.6,98.7,9.1,132,1.5c14.5-3.3,36.4-14.9,39.9-32.7
	c0,0-16-3.4-34.4-1.1c-5.2,0.7-10.1,0.8-12.6,0.8c-1,0-1.9-0.7-2.1-1.7l-3.9-20.5c0,0-2-8.5-12.1-9.3c0,0-27-4-37.8-3.8
	C120,2.3,93.3,7.3,90.1,7.7C87,8.1,80.2,9.9,78.6,18c-1.6,8.2-2.2,16.7-11.1,19.1S54,33.9,38.9,36.7C27.9,38.7,22.8,43.1,22.8,43.1z
	"/>
<path class="st0" d="M256,210.9c0,0,0.5-5.6-4.7-9l-27.7-20c-0.4-0.3-0.4-0.8,0-1.1l21.5-18.8c0.2-0.2,0.2-0.6-0.1-0.8l-54.9-33.8
	c-1.7-1-3.8-0.7-5.1,0.7l-4.1,4.5c-7,7.9-10.2,12.2-13.6,22.2l-1.6,4.4c-4.3,12.9-16.4,26.2-33.4,28.7l0,0c-2.9,0.4-5.9,0.4-8.9,0h0
	c-16.9-2.6-29-15.8-33.4-28.7l-1.6-4.4c-3.4-10-6.6-14.3-13.6-22.2l-4.1-4.5c-1.3-1.5-3.5-1.8-5.1-0.7L11,161.2
	c-0.3,0.2-0.3,0.5-0.1,0.8l21.5,18.8c0.3,0.3,0.3,0.8,0,1.1l-27.7,20c-5.2,3.5-4.7,9-4.7,9"/>
<linearGradient id="SVGID_1_" gradientUnits="userSpaceOnUse" x1="72.5554" y1="104.2965" x2="183.4476" y2="104.2965">
	<stop  offset="0" style="stop-color:#00FEC9"/>
	<stop  offset="0.2854" style="stop-color:#3081CE"/>
	<stop  offset="0.5558" style="stop-color:#5F08D3"/>
	<stop  offset="0.6733" style="stop-color:#8507DB"/>
	<stop  offset="0.9343" style="stop-color:#E405EF"/>
	<stop  offset="1" style="stop-color:#FD05F4"/>
</linearGradient>
<path class="st1" d="M183.4,91c0,0-12.2,25.5-17.5,26.4c-6.4,1.1-10-5.1-17-9.4c-7.6-4.7-14.8-6.8-21-6.8c-6.2,0-13.4,2.1-21,6.8
	c-7,4.3-10.6,10.5-17,9.4C84.7,116.5,72.6,91,72.6,91H183.4z"/>
</svg>
